<svg width="16" height="13" viewBox="0 0 16 13" fill="none" xmlns="http://www.w3.org/2000/svg">
<path fill-rule="evenodd" clip-rule="evenodd" d="M15.796 6.908L14.234 5.21C14.1305 5.10813 13.9912 5.05104 13.846 5.05104C13.7008 5.05104 13.5615 5.10813 13.458 5.21L11.894 6.908C11.843 6.9585 11.8024 7.01861 11.7748 7.08487C11.7471 7.15112 11.7329 7.2222 11.7329 7.294C11.7329 7.36579 11.7471 7.43688 11.7748 7.50313C11.8024 7.56939 11.843 7.6295 11.894 7.68H13.188C12.946 8.58936 12.4681 9.4187 11.8028 10.0842C11.1375 10.7497 10.3083 11.2277 9.399 11.47C8.33637 11.748 7.21411 11.6939 6.18312 11.3151C5.15213 10.9363 4.26185 10.2509 3.632 9.351L2.541 10.102C3.3269 11.2248 4.43783 12.08 5.72433 12.5525C7.01083 13.025 8.41118 13.0922 9.737 12.745C10.9294 12.4289 12.0107 11.788 12.8604 10.8937C13.7102 9.99949 14.2951 8.88696 14.55 7.68H15.795C15.846 7.6295 15.8865 7.56942 15.9141 7.50321C15.9418 7.43699 15.9561 7.36597 15.9562 7.29421C15.9563 7.22245 15.9422 7.15138 15.9147 7.0851C15.8872 7.01882 15.8468 6.95863 15.796 6.908V6.908Z" fill="#ff4000"/>
<path fill-rule="evenodd" clip-rule="evenodd" d="M4.47501 6.021C4.52604 5.97051 4.56656 5.91039 4.59421 5.84413C4.62186 5.77788 4.6361 5.7068 4.6361 5.635C4.6361 5.56321 4.62186 5.49212 4.59421 5.42587C4.56656 5.35961 4.52604 5.2995 4.47501 5.249H3.01801C3.26588 4.35112 3.74434 3.53372 4.40588 2.87798C5.06741 2.22224 5.88899 1.75097 6.78901 1.511C7.85167 1.23272 8.9741 1.28684 10.0051 1.66608C11.036 2.04531 11.926 2.73143 12.555 3.632L13.647 2.88C12.8609 1.75658 11.7495 0.900876 10.4625 0.428003C9.17546 -0.0448706 7.77447 -0.112225 6.448 0.235C5.26481 0.549711 4.19105 1.18402 3.3444 2.06842C2.49774 2.95283 1.91084 4.05321 1.64801 5.249H0.196005C0.144969 5.2995 0.104452 5.35961 0.0768011 5.42587C0.0491497 5.49212 0.0349121 5.56321 0.0349121 5.635C0.0349121 5.7068 0.0491497 5.77788 0.0768011 5.84413C0.104452 5.91039 0.144969 5.97051 0.196005 6.021L1.83401 7.658C1.93746 7.75987 2.07682 7.81696 2.222 7.81696C2.36719 7.81696 2.50655 7.75987 2.61 7.658L4.47501 6.021Z" fill="#ff4000"/>
</svg>
